<?xml version="1.0" standalone="no"?>
<!DOCTYPE svg PUBLIC "-//W3C//DTD SVG 1.1//EN" "http://www.w3.org/Graphics/SVG/1.1/DTD/svg11.dtd" >
<svg xmlns="http://www.w3.org/2000/svg" xmlns:xlink="http://www.w3.org/1999/xlink" version="1.1">
<metadata>
Created by FontForge 20170731 at Thu May 28 14:59:44 2020
 By Aleksey,,,
Copyright 2021, Kris Sowersby, Klim Type Foundry.
</metadata>
<defs>
<font id="TestGeograph-BoldItalic" horiz-adv-x="655" >
  <font-face 
    font-family="Copyright Klim Type Foundry"
    font-weight="700"
    font-style="italic"
    font-stretch="normal"
    units-per-em="1000"
    panose-1="2 11 8 3 3 2 2 13 2 3"
    ascent="800"
    descent="-200"
    x-height="515"
    cap-height="730"
    bbox="-113 -222 1135 772"
    underline-thickness="127"
    underline-position="-359"
    slope="-10"
    unicode-range="U+0020-007A"
  />
<missing-glyph horiz-adv-x="606" 
 />
    <glyph glyph-name=".notdef" horiz-adv-x="606" 
 />
    <glyph glyph-name=".null" horiz-adv-x="0" 
 />
    <glyph glyph-name="nonmarkingreturn" horiz-adv-x="333" 
 />
    <glyph glyph-name="space" unicode=" " horiz-adv-x="208" 
 />
    <glyph glyph-name="comma" unicode="," horiz-adv-x="274" 
d="M223 104l-190 -239l-92 47l127 278z" />
    <glyph glyph-name="hyphen" unicode="-" horiz-adv-x="363" 
d="M42 223l27 151h266l-27 -151h-266z" />
    <glyph glyph-name="period" unicode="." horiz-adv-x="274" 
d="M106 185h2q41 0 69 -27.5t28 -68.5t-28 -68.5t-69 -27.5h-2q-41 0 -69 28t-28 68t28 68t69 28z" />
    <glyph glyph-name="zero" unicode="0" horiz-adv-x="667" 
d="M138 589q51 74 119.5 113.5t146.5 39.5q113 0 183.5 -82.5t70.5 -215.5q0 -82 -24 -160.5t-67 -142.5q-51 -74 -119.5 -113.5t-146.5 -39.5q-113 0 -183.5 82.5t-70.5 215.5q0 82 24 160.5t67 142.5zM501 435q0 76 -29.5 120t-82.5 44q-76 0 -130.5 -93t-54.5 -211
q0 -76 29.5 -120t82.5 -44q76 0 130.5 93t54.5 211z" />
    <glyph glyph-name="one" unicode="1" horiz-adv-x="421" 
d="M84 616l351 141l-133 -757h-160l95 537l-180 -76z" />
    <glyph glyph-name="two" unicode="2" horiz-adv-x="544" 
d="M383 273l-138 -141h252l-24 -132h-530l266 274q112 115 144 164.5t32 88.5q0 34 -23 52.5t-65 18.5q-47 0 -107.5 -26.5t-114.5 -68.5l28 155q52 39 116.5 61.5t127.5 22.5q92 0 147 -48.5t55 -129.5q0 -63 -35 -126.5t-131 -164.5z" />
    <glyph glyph-name="three" unicode="3" horiz-adv-x="533" 
d="M351 598h-253l24 132h481l-229 -293q62 -21 96 -64.5t34 -103.5q0 -116 -90 -198.5t-222 -82.5q-64 0 -116.5 16t-89.5 47l26 150q35 -38 83 -59t100 -21q67 0 112 37t45 92q0 52 -50 81.5t-139 31.5z" />
    <glyph glyph-name="four" unicode="4" horiz-adv-x="637" 
d="M388 730h167l-313 -448h141l26 149h144l-26 -149h105l-22 -125h-105l-28 -157h-144l28 157h-373z" />
    <glyph glyph-name="five" unicode="5" horiz-adv-x="521" 
d="M537 598h-243l-37 -121q112 -14 172 -67t60 -140q0 -122 -88 -202t-227 -80q-53 0 -106.5 16t-81.5 40l27 150q30 -33 77 -53t96 -20q67 0 108.5 33.5t41.5 88.5q0 56 -63 85t-186 31l109 371h364z" />
    <glyph glyph-name="six" unicode="6" horiz-adv-x="599" 
d="M328 500h5q100 0 167.5 -65.5t67.5 -160.5q0 -121 -84 -203.5t-205 -82.5q-108 0 -179 68t-71 169q0 63 25 121t85 132l205 252h176zM173 241q0 -50 32.5 -83t82.5 -33q56 0 96 40.5t40 98.5q0 49 -32.5 82t-81.5 33q-57 0 -97 -40t-40 -98z" />
    <glyph glyph-name="seven" unicode="7" horiz-adv-x="577" 
d="M105 730h554l-421 -730h-167l346 598h-336z" />
    <glyph glyph-name="eight" unicode="8" horiz-adv-x="602" 
d="M464 365q47 -23 73.5 -62t26.5 -88q0 -101 -80.5 -164t-201.5 -63q-110 0 -184 55.5t-74 145.5q0 70 43.5 123.5t112.5 71.5q-36 22 -56 57t-20 79q0 95 74 158.5t184 63.5q101 0 166.5 -53t65.5 -137q0 -63 -35.5 -113.5t-94.5 -73.5zM448 541q0 36 -25.5 58.5
t-65.5 22.5q-47 0 -78.5 -28.5t-31.5 -72.5q0 -36 26 -59t65 -23q47 0 78.5 29t31.5 73zM410 221q0 41 -29.5 66.5t-76.5 26.5q-53 0 -88.5 -31.5t-35.5 -79.5q0 -40 29 -65t76 -26q53 0 89 31t36 78z" />
    <glyph glyph-name="nine" unicode="9" horiz-adv-x="599" 
d="M310 230h-5q-100 0 -167.5 65.5t-67.5 160.5q0 121 84 203.5t205 82.5q108 0 179 -68t71 -169q0 -63 -25 -121t-85 -132l-205 -252h-176zM465 489q0 50 -32.5 83t-82.5 33q-56 0 -96 -40.5t-40 -98.5q0 -49 32.5 -82t81.5 -33q57 0 97 40t40 98z" />
    <glyph glyph-name="A" unicode="A" horiz-adv-x="772" 
d="M-38 0l520 760l238 -760h-161l-40 132h-300l-88 -132h-169zM483 254l-57 188l-125 -188h182z" />
    <glyph glyph-name="B" unicode="B" horiz-adv-x="624" 
d="M293 0h-265l129 730h229q105 0 162 -44.5t57 -124.5q0 -59 -34.5 -107.5t-89.5 -70.5q54 -18 83 -56.5t29 -92.5q0 -101 -83.5 -167.5t-216.5 -66.5zM289 598l-30 -171h66q56 0 89 26.5t33 70.5q0 36 -23.5 55t-68.5 19h-66zM238 310l-31 -178h99q56 0 90.5 27.5
t34.5 72.5q0 37 -24.5 57.5t-69.5 20.5h-99z" />
    <glyph glyph-name="C" unicode="C" horiz-adv-x="639" 
d="M212 334q0 -86 54.5 -140.5t139.5 -54.5q56 0 101 16.5t80 48.5l-31 -179q-34 -19 -76 -28t-96 -9q-144 0 -238.5 95.5t-94.5 239.5q0 88 32.5 165t93.5 136q60 57 139 87.5t167 30.5q57 0 107 -13t83 -37l-31 -175q-24 33 -71 53.5t-101 20.5q-110 0 -184 -72.5
t-74 -184.5z" />
    <glyph glyph-name="D" unicode="D" horiz-adv-x="723" 
d="M28 0l129 730h233q143 0 232.5 -89.5t89.5 -231.5q0 -176 -128 -292.5t-319 -116.5h-237zM550 400q0 89 -52.5 143.5t-140.5 54.5h-64l-82 -466h62q120 0 198.5 76.5t78.5 191.5z" />
    <glyph glyph-name="E" unicode="E" horiz-adv-x="578" 
d="M490 0h-462l129 730h460l-23 -132h-305l-27 -159h281l-23 -132h-282l-30 -175h306z" />
    <glyph glyph-name="F" unicode="F" horiz-adv-x="553" 
d="M184 0h-156l129 730h450l-24 -132h-294l-29 -166h270l-23 -132h-270z" />
    <glyph glyph-name="G" unicode="G" horiz-adv-x="767" 
d="M453 416h289l-54 -305q-61 -63 -133.5 -93t-163.5 -30q-144 0 -242 97t-98 240q0 87 33.5 165t95.5 136q61 56 140 86t169 30q78 0 146.5 -25t108.5 -66l-31 -176q-41 55 -103 87t-130 32q-121 0 -195 -72.5t-74 -188.5q0 -86 55.5 -143t138.5 -57q43 0 75.5 9t61.5 30
l19 112h-169z" />
    <glyph glyph-name="H" unicode="H" horiz-adv-x="770" 
d="M652 0h-160l54 307h-305l-54 -307h-159l129 730h159l-51 -291h305l51 291h160z" />
    <glyph glyph-name="I" unicode="I" horiz-adv-x="305" 
d="M28 0l129 730h159l-129 -730h-159z" />
    <glyph glyph-name="J" unicode="J" horiz-adv-x="480" 
d="M503 730l-84 -481q-22 -122 -98.5 -191.5t-188.5 -69.5q-39 0 -79 11.5t-63 29.5l27 149q21 -23 51 -36t62 -13q54 0 86 31t44 94l84 476h159z" />
    <glyph glyph-name="K" unicode="K" horiz-adv-x="689" 
d="M757 730l-342 -344l233 -386h-177l-219 366l-65 -366h-159l129 730h159l-57 -322l310 322h188z" />
    <glyph glyph-name="L" unicode="L" horiz-adv-x="540" 
d="M475 0h-447l129 730h159l-105 -598h288z" />
    <glyph glyph-name="M" unicode="M" horiz-adv-x="1015" 
d="M326 760l184 -499l355 499l90 -760h-159l-42 391l-291 -411l-147 411l-181 -391h-165z" />
    <glyph glyph-name="N" unicode="N" horiz-adv-x="805" 
d="M161 759l422 -466l77 437h156l-134 -759l-422 465l-77 -436h-156z" />
    <glyph glyph-name="O" unicode="O" horiz-adv-x="818" 
d="M172 619q58 59 134 91t160 32q146 0 242.5 -94.5t96.5 -241.5q0 -82 -31.5 -159t-89.5 -136q-58 -60 -134 -91.5t-160 -31.5q-146 0 -242.5 94.5t-96.5 241.5q0 82 31.5 159t89.5 136zM645 396q0 88 -53.5 143t-139.5 55q-104 0 -172 -76t-68 -184q0 -88 53.5 -143
t139.5 -55q103 0 171.5 76t68.5 184z" />
    <glyph glyph-name="P" unicode="P" horiz-adv-x="594" 
d="M620 525q0 -117 -89 -188t-235 -71h-62l-47 -266h-159l129 730h213q117 0 183.5 -55t66.5 -150zM353 600h-60l-36 -204h62q65 0 104.5 32t39.5 84q0 41 -29.5 64.5t-80.5 23.5z" />
    <glyph glyph-name="Q" unicode="Q" horiz-adv-x="818" 
d="M681 108l83 -108h-162l-25 32q-43 -22 -90 -33t-97 -11q-146 0 -242.5 94.5t-96.5 241.5q0 82 31.5 159t89.5 136t134 91t160 32q146 0 242.5 -94.5t96.5 -241.5q0 -84 -32.5 -161.5t-91.5 -136.5zM645 396q0 88 -53.5 143t-139.5 55q-104 0 -172 -76t-68 -184
q0 -88 53.5 -143t139.5 -55q21 0 41.5 3.5t39.5 10.5l-139 180h162l80 -103q27 35 41.5 79t14.5 90z" />
    <glyph glyph-name="R" unicode="R" 
d="M290 270h-57l-48 -270h-157l129 730h216q118 0 184.5 -53.5t66.5 -148.5q0 -79 -46.5 -140t-130.5 -92l167 -296h-176zM354 600h-63l-36 -204h63q64 0 102.5 31.5t38.5 83.5q0 43 -27 66t-78 23z" />
    <glyph glyph-name="S" unicode="S" horiz-adv-x="556" 
d="M-2 64l29 157q52 -48 106 -73t107 -25q57 0 91.5 24t34.5 65q0 22 -13.5 40t-42.5 33l-102 51q-67 34 -96.5 73t-29.5 92q0 103 79.5 172t200.5 69q56 0 109.5 -20t85.5 -52l-27 -157q-39 44 -88.5 69t-100.5 25q-48 0 -77 -21.5t-29 -57.5q0 -19 12 -33t43 -30l93 -47
q76 -37 107 -77.5t31 -96.5q0 -110 -84.5 -183t-212.5 -73q-64 0 -127 21.5t-99 54.5z" />
    <glyph glyph-name="T" unicode="T" horiz-adv-x="652" 
d="M716 730l-24 -132h-226l-105 -598h-160l105 598h-226l24 132h612z" />
    <glyph glyph-name="U" unicode="U" horiz-adv-x="717" 
d="M223 250q0 -57 32.5 -89t89.5 -32q63 0 103.5 41.5t55.5 120.5l77 439h160l-78 -439q-25 -141 -115 -222t-221 -81q-118 0 -191.5 66.5t-73.5 176.5q0 18 1 32.5t4 27.5l78 439h159l-77 -439q-3 -20 -3.5 -27.5t-0.5 -13.5z" />
    <glyph glyph-name="V" unicode="V" horiz-adv-x="767" 
d="M846 730l-519 -760l-238 760h163l130 -448l295 448h169z" />
    <glyph glyph-name="W" unicode="W" horiz-adv-x="1056" 
d="M677 -30l-118 457l-285 -457l-185 760h163l96 -418l267 438l109 -436l240 416h171z" />
    <glyph glyph-name="X" unicode="X" horiz-adv-x="754" 
d="M702 0h-177l-145 267l-237 -267h-181l346 386l-192 344h180l121 -229l203 229h181l-313 -348z" />
    <glyph glyph-name="Y" unicode="Y" horiz-adv-x="721" 
d="M452 321l-56 -321h-161l57 321l-201 409h177l126 -261l219 261h184z" />
    <glyph glyph-name="Z" unicode="Z" horiz-adv-x="669" 
d="M727 730l-468 -598h350l-23 -132h-610l469 598h-344l24 132h602z" />
    <glyph glyph-name="a" unicode="a" horiz-adv-x="558" 
d="M453 0h-151l5 32q-20 -19 -54 -31.5t-70 -12.5q-73 0 -121 43t-48 111q0 81 63.5 133.5t159.5 52.5q36 0 68 -10.5t49 -27.5l4 21q0 1 1 7t1 10q0 31 -27.5 48.5t-76.5 17.5q-34 0 -72.5 -10.5t-78.5 -31.5l24 136q37 18 84.5 28.5t94.5 10.5q113 0 165.5 -56.5
t34.5 -159.5zM233 99q44 0 73.5 20t29.5 51q0 25 -22 39.5t-58 14.5q-43 0 -72.5 -20t-29.5 -50q0 -25 22 -40t57 -15z" />
    <glyph glyph-name="b" unicode="b" 
d="M412 527q94 0 154.5 -65.5t60.5 -166.5q0 -126 -84 -216.5t-205 -90.5q-46 0 -88.5 20t-63.5 50l-10 -58h-156l134 760h156l-54 -303q25 32 67 51t89 19zM469 278q0 52 -30 83.5t-80 31.5q-60 0 -100.5 -45.5t-40.5 -111.5q0 -51 30.5 -83t79.5 -32q60 0 100.5 45.5
t40.5 111.5z" />
    <glyph glyph-name="c" unicode="c" horiz-adv-x="457" 
d="M180 238q0 -51 33 -82.5t84 -31.5q29 0 53 7t52 25l-26 -147q-25 -11 -52 -16t-57 -5q-102 0 -169.5 64.5t-67.5 163.5q0 130 92.5 220.5t226.5 90.5q29 0 59 -7.5t52 -19.5l-25 -144q-26 20 -48.5 27.5t-49.5 7.5q-65 0 -111 -44.5t-46 -108.5z" />
    <glyph glyph-name="d" unicode="d" 
d="M29 220q0 127 83.5 217t204.5 90q50 0 90 -19t63 -52l53 304h156l-134 -760h-156l10 57q-25 -31 -67 -50t-89 -19q-93 0 -153.5 65.5t-60.5 166.5zM438 279q0 51 -31 82.5t-80 31.5q-60 0 -100.5 -45t-40.5 -111q0 -52 30.5 -84t79.5 -32q61 0 101.5 46t40.5 112z" />
    <glyph glyph-name="e" unicode="e" horiz-adv-x="573" 
d="M279 -12q-109 0 -179 67.5t-70 171.5q0 122 88 211t212 89q127 0 182.5 -87t21.5 -224h-362q7 -48 44.5 -74t99.5 -26q43 0 89.5 13.5t82.5 36.5l-23 -133q-40 -22 -87.5 -33.5t-98.5 -11.5zM317 403q-42 0 -77 -23.5t-53 -64.5h221q2 38 -23 63t-68 25z" />
    <glyph glyph-name="f" unicode="f" horiz-adv-x="383" 
d="M382 772q25 0 45 -3.5t33 -10.5l-22 -129q-9 6 -21 9t-27 3q-33 0 -54 -19t-28 -54l-9 -53h108l-21 -124h-108l-70 -391h-154l70 391h-82l21 124h82l11 61q16 91 76.5 143.5t149.5 52.5z" />
    <glyph glyph-name="g" unicode="g" horiz-adv-x="651" 
d="M476 515h156l-82 -467q-23 -130 -111 -200t-225 -70q-54 0 -108.5 14t-82.5 36l26 148q31 -30 75 -45.5t97 -15.5q71 0 115 31.5t56 91.5l7 39q-24 -31 -62 -47t-86 -16q-91 0 -152.5 64t-61.5 160q0 119 80 204t196 85q48 0 90 -19.5t63 -50.5zM304 147q53 0 92 37
t42 92q3 50 -29 83t-82 33q-54 0 -93 -36.5t-42 -91.5q-3 -51 29 -84t83 -33z" />
    <glyph glyph-name="h" unicode="h" horiz-adv-x="608" 
d="M328 386q-39 0 -66 -26.5t-35 -69.5l-51 -290h-156l134 760h156l-53 -296q30 31 67.5 47t79.5 16q87 0 130 -57t26 -150l-56 -320h-157l51 290q8 43 -10.5 69t-59.5 27z" />
    <glyph glyph-name="i" unicode="i" horiz-adv-x="285" 
d="M214 757h2q37 0 62.5 -25.5t25.5 -62.5t-25.5 -62t-62.5 -25h-2q-36 0 -62 25.5t-26 61.5q0 37 25.5 62.5t62.5 25.5zM20 0l90 515h156l-90 -515h-156z" />
    <glyph glyph-name="j" unicode="j" horiz-adv-x="285" 
d="M214 757h2q37 0 62.5 -25.5t25.5 -62.5t-25.5 -62t-62.5 -25h-2q-36 0 -62 25.5t-26 61.5q0 37 25.5 62.5t62.5 25.5zM-60 -90q32 0 51 18.5t25 55.5l94 531h156l-93 -532q-17 -94 -75 -146t-145 -52q-17 0 -36.5 2.5t-29.5 5.5l21 123q8 -3 15.5 -4.5t16.5 -1.5z" />
    <glyph glyph-name="k" unicode="k" horiz-adv-x="595" 
d="M20 0l134 760h155l-82 -464l208 219h187l-246 -248l162 -267h-174l-144 253l-45 -253h-155z" />
    <glyph glyph-name="l" unicode="l" horiz-adv-x="285" 
d="M20 0l134 760h156l-134 -760h-156z" />
    <glyph glyph-name="m" unicode="m" horiz-adv-x="898" 
d="M627 386q-34 0 -58 -23t-32 -61l-53 -302h-156l53 302q7 37 -10 60.5t-52 23.5t-59 -23t-31 -61l-53 -302h-156l90 515h156l-9 -51q26 28 66 45.5t81 17.5q44 0 77 -18t53 -52q39 36 78.5 53t82.5 17q83 0 127 -57t28 -145l-57 -325h-157l54 302q7 37 -10.5 60.5
t-52.5 23.5z" />
    <glyph glyph-name="n" unicode="n" horiz-adv-x="608" 
d="M328 386q-39 0 -66 -26.5t-35 -69.5l-51 -290h-156l90 515h156l-9 -51q30 31 67.5 47t79.5 16q87 0 130 -57t26 -150l-56 -320h-157l51 290q8 43 -10.5 69t-59.5 27z" />
    <glyph glyph-name="o" unicode="o" horiz-adv-x="612" 
d="M583 287q0 -122 -88 -210.5t-215 -88.5q-108 0 -179 67.5t-71 171.5q0 122 88.5 211t215.5 89q107 0 178 -68t71 -172zM430 280q0 51 -29 82t-78 31q-59 0 -99.5 -45.5t-40.5 -112.5q0 -51 29.5 -82t77.5 -31q60 0 100 45.5t40 112.5z" />
    <glyph glyph-name="p" unicode="p" 
d="M412 527q94 0 154.5 -65.5t60.5 -166.5q0 -126 -84 -216.5t-205 -90.5q-46 0 -88.5 20t-63.5 50l-47 -268h-156l127 725h156l-10 -58q25 32 67 51t89 19zM469 278q0 52 -30 83.5t-80 31.5q-60 0 -100.5 -45.5t-40.5 -111.5q0 -51 30.5 -83t79.5 -32q60 0 100.5 45.5
t40.5 111.5z" />
    <glyph glyph-name="q" unicode="q" 
d="M29 220q0 127 83.5 217t204.5 90q50 0 90 -19t63 -52l10 59h156l-128 -725h-156l47 267q-25 -31 -67 -50t-89 -19q-93 0 -153.5 65.5t-60.5 166.5zM438 279q0 51 -31 82.5t-80 31.5q-60 0 -100.5 -45t-40.5 -111q0 -52 30.5 -84t79.5 -32q61 0 101.5 46t40.5 112z" />
    <glyph glyph-name="r" unicode="r" horiz-adv-x="407" 
d="M426 524l-28 -161q-74 13 -121 -18t-60 -103l-42 -242h-157l91 515h156l-12 -72q29 42 74.5 63.5t98.5 17.5z" />
    <glyph glyph-name="s" unicode="s" horiz-adv-x="448" 
d="M4 40l24 138q28 -31 72.5 -50.5t89.5 -19.5q31 0 49.5 12t18.5 33q0 12 -7 19.5t-25 15.5l-66 28q-52 21 -77 52t-25 75q0 79 61 131.5t156 52.5q42 0 84 -12.5t67 -31.5l-23 -134q-30 25 -68.5 40.5t-73.5 15.5q-26 0 -41.5 -11t-15.5 -30q0 -13 8 -21.5t32 -19.5
l71 -30q46 -20 68.5 -48.5t22.5 -68.5q0 -82 -65 -135t-163 -53q-47 0 -95 14.5t-79 37.5z" />
    <glyph glyph-name="t" unicode="t" horiz-adv-x="424" 
d="M275 391l-37 -202q-5 -32 9.5 -49.5t46.5 -17.5q20 0 39.5 6.5t36.5 19.5l-25 -138q-21 -10 -49.5 -16t-56.5 -6q-88 0 -131 49t-28 135l38 219h-82l22 124h81l20 110l165 47l-28 -157h129l-21 -124h-129z" />
    <glyph glyph-name="u" unicode="u" horiz-adv-x="606" 
d="M276 122q39 0 66.5 26t35.5 70l52 297h156l-90 -515h-156l9 50q-29 -29 -66 -45.5t-75 -16.5q-89 0 -132 57.5t-26 156.5l55 313h156l-52 -297q-8 -43 10 -69.5t57 -26.5z" />
    <glyph glyph-name="v" unicode="v" horiz-adv-x="591" 
d="M211 515l82 -260l176 260h170l-395 -543l-202 543h169z" />
    <glyph glyph-name="w" unicode="w" horiz-adv-x="842" 
d="M279 246l189 291l86 -291l172 269h164l-374 -544l-92 304l-203 -304l-179 544h159z" />
    <glyph glyph-name="x" unicode="x" horiz-adv-x="578" 
d="M526 0h-167l-85 160l-140 -160h-173l241 265l-136 250h168l76 -144l124 144h172l-224 -251z" />
    <glyph glyph-name="y" unicode="y" horiz-adv-x="609" 
d="M140 -210h-165l218 304l-142 421h165l83 -270l181 270h169z" />
    <glyph glyph-name="z" unicode="z" horiz-adv-x="521" 
d="M546 515l-312 -392h228l-22 -123h-466l313 391h-228l21 124h466z" />
    <glyph glyph-name="NULL" horiz-adv-x="475" 
 />
    <glyph glyph-name="uni00A0" horiz-adv-x="208" 
 />
    </font>
</defs>
</svg>
