<?xml version="1.0" standalone="no"?>
<!DOCTYPE svg PUBLIC "-//W3C//DTD SVG 1.1//EN" "http://www.w3.org/Graphics/SVG/1.1/DTD/svg11.dtd" >
<svg xmlns="http://www.w3.org/2000/svg" xmlns:xlink="http://www.w3.org/1999/xlink" version="1.1">
<metadata>
Created by FontForge 20170731 at Thu May 28 14:59:43 2020
 By Aleksey,,,
Copyright 2021, Kris Sowersby, Klim Type Foundry.
</metadata>
<defs>
<font id="TestGeograph-MediumItalic" horiz-adv-x="656" >
  <font-face 
    font-family="Copyright Klim Type Foundry"
    font-weight="500"
    font-style="italic"
    font-stretch="normal"
    units-per-em="1000"
    panose-1="2 11 6 3 3 2 2 13 2 3"
    ascent="800"
    descent="-200"
    x-height="512"
    cap-height="730"
    bbox="-115 -222 1119 772"
    underline-thickness="108"
    underline-position="-340"
    slope="-10"
    unicode-range="U+0020-007A"
  />
<missing-glyph horiz-adv-x="602" 
 />
    <glyph glyph-name=".notdef" horiz-adv-x="602" 
 />
    <glyph glyph-name=".null" horiz-adv-x="0" 
 />
    <glyph glyph-name="nonmarkingreturn" horiz-adv-x="333" 
 />
    <glyph glyph-name="space" unicode=" " horiz-adv-x="214" 
 />
    <glyph glyph-name="comma" unicode="," horiz-adv-x="265" 
d="M204 93l-176 -224l-77 41l120 257z" />
    <glyph glyph-name="hyphen" unicode="-" horiz-adv-x="372" 
d="M51 232l23 128h261l-23 -128h-261z" />
    <glyph glyph-name="period" unicode="." horiz-adv-x="265" 
d="M100 162h2q35 0 60 -24.5t25 -59.5q0 -36 -24.5 -60.5t-60.5 -24.5h-2q-36 0 -60.5 24.5t-24.5 60.5q0 35 25 59.5t60 24.5z" />
    <glyph glyph-name="zero" unicode="0" horiz-adv-x="655" 
d="M138 586q50 75 117.5 115.5t144.5 40.5q110 0 177.5 -81.5t67.5 -213.5q0 -81 -23 -160t-66 -143q-50 -75 -117.5 -115.5t-144.5 -40.5q-110 0 -177.5 81.5t-67.5 213.5q0 81 23 160t66 143zM511 440q0 83 -33 132t-91 49q-84 0 -144.5 -101.5t-60.5 -229.5
q0 -83 33 -132t91 -49q84 0 144.5 101t60.5 230z" />
    <glyph glyph-name="one" unicode="1" horiz-adv-x="414" 
d="M89 618l331 136l-133 -754h-135l100 567l-186 -81z" />
    <glyph glyph-name="two" unicode="2" horiz-adv-x="537" 
d="M364 269l-160 -157h279l-20 -112h-517l274 275q109 109 145 164t36 99q0 39 -25.5 60t-72.5 21q-49 0 -110 -27t-112 -68l23 133q50 39 114 62t126 23q90 0 142.5 -47t52.5 -127q0 -65 -38 -132t-137 -167z" />
    <glyph glyph-name="three" unicode="3" horiz-adv-x="528" 
d="M375 618h-272l21 112h468l-241 -295q68 -17 106.5 -61.5t38.5 -108.5q0 -115 -88.5 -196t-217.5 -81q-63 0 -116 17t-89 48l23 128q35 -38 83 -59t101 -21q75 0 125 42.5t50 105.5q0 58 -53 90.5t-145 31.5z" />
    <glyph glyph-name="four" unicode="4" horiz-adv-x="626" 
d="M396 730h142l-331 -458h175l28 159h122l-28 -159h115l-19 -107h-115l-29 -165h-122l29 165h-373z" />
    <glyph glyph-name="five" unicode="5" horiz-adv-x="516" 
d="M534 618h-251l-45 -147q116 -9 179.5 -62t63.5 -143q0 -120 -86.5 -199t-221.5 -79q-54 0 -107 16.5t-81 41.5l23 128q31 -33 78 -53t96 -20q75 0 122 39.5t47 103.5q0 63 -67.5 95.5t-190.5 29.5l108 361h353z" />
    <glyph glyph-name="six" unicode="6" horiz-adv-x="596" 
d="M328 497q100 0 167 -65.5t67 -161.5q0 -119 -83 -200.5t-201 -81.5q-107 0 -176.5 67.5t-69.5 168.5q0 61 24 117t79 124l216 265h149l-194 -235l13.5 1.5t8.5 0.5zM154 236q0 -57 37 -94.5t94 -37.5q64 0 109.5 46t45.5 112q0 57 -37.5 94.5t-93.5 37.5
q-64 0 -109.5 -46t-45.5 -112z" />
    <glyph glyph-name="seven" unicode="7" horiz-adv-x="563" 
d="M102 730h542l-430 -730h-142l366 618h-357z" />
    <glyph glyph-name="eight" unicode="8" horiz-adv-x="597" 
d="M451 370q50 -24 77.5 -64.5t27.5 -91.5q0 -99 -80 -162.5t-199 -63.5q-107 0 -179.5 55t-72.5 144q0 72 46 127.5t119 72.5q-39 22 -60 57.5t-21 80.5q0 92 72.5 154.5t179.5 62.5q98 0 162 -51.5t64 -134.5q0 -62 -37.5 -113t-98.5 -73zM463 547q0 41 -30 67t-76 26
q-54 0 -90 -33t-36 -82q0 -41 30 -67t75 -26q54 0 90.5 33t36.5 82zM426 219q0 48 -34.5 77.5t-90.5 30.5q-60 0 -102 -36.5t-42 -91.5q0 -47 34.5 -76t88.5 -29q62 0 104 36t42 89z" />
    <glyph glyph-name="nine" unicode="9" horiz-adv-x="596" 
d="M307 233q-100 0 -167 65.5t-67 161.5q0 119 83 200.5t201 81.5q107 0 176.5 -67.5t69.5 -168.5q0 -61 -24 -117t-79 -124l-216 -265h-149l194 235l-13.5 -1.5t-8.5 -0.5zM481 494q0 57 -37 94.5t-94 37.5q-64 0 -109.5 -46t-45.5 -112q0 -57 37.5 -94.5t93.5 -37.5
q64 0 109.5 46t45.5 112z" />
    <glyph glyph-name="A" unicode="A" horiz-adv-x="759" 
d="M-34 0l508 759l229 -759h-135l-45 157h-312l-103 -157h-142zM492 261l-65 226l-148 -226h213z" />
    <glyph glyph-name="B" unicode="B" horiz-adv-x="607" 
d="M278 0h-245l129 730h210q103 0 158.5 -43.5t55.5 -123.5q0 -61 -36.5 -110.5t-94.5 -69.5q58 -17 89 -56t31 -95q0 -100 -82.5 -166t-214.5 -66zM274 618l-35 -197h72q65 0 103.5 30.5t38.5 81.5q0 42 -27.5 63.5t-80.5 21.5h-71zM221 321l-36 -209h105q66 0 107 32.5
t41 85.5q0 43 -29.5 67t-82.5 24h-105z" />
    <glyph glyph-name="C" unicode="C" horiz-adv-x="648" 
d="M189 331q0 -93 60 -154t152 -61q59 0 106 16.5t84 50.5l-26 -152q-37 -22 -81.5 -32.5t-99.5 -10.5q-143 0 -237 95.5t-94 238.5q0 88 32.5 165.5t92.5 135.5q60 57 138.5 88t165.5 31q59 0 111.5 -15.5t85.5 -42.5l-26 -149q-26 36 -75.5 57.5t-105.5 21.5
q-121 0 -202 -80t-81 -203z" />
    <glyph glyph-name="D" unicode="D" horiz-adv-x="716" 
d="M33 0l129 730h221q143 0 231.5 -88.5t88.5 -230.5q0 -87 -35 -164.5t-100 -134.5q-61 -54 -141.5 -83t-170.5 -29h-223zM567 403q0 96 -57.5 155.5t-154.5 59.5h-78l-89 -506h76q130 0 216.5 83.5t86.5 207.5z" />
    <glyph glyph-name="E" unicode="E" horiz-adv-x="577" 
d="M485 0h-452l129 730h450l-20 -112h-318l-33 -189h293l-20 -113h-293l-35 -204h319z" />
    <glyph glyph-name="F" unicode="F" horiz-adv-x="548" 
d="M165 0h-132l129 730h438l-20 -112h-306l-34 -195h280l-20 -112h-280z" />
    <glyph glyph-name="G" unicode="G" horiz-adv-x="768" 
d="M454 408h283l-53 -298q-59 -62 -131.5 -92t-162.5 -30q-144 0 -240.5 97t-96.5 239q0 87 33 164.5t94 135.5q60 57 139 87.5t168 30.5q78 0 147 -27.5t108 -71.5l-27 -150q-39 57 -101.5 90.5t-133.5 33.5q-129 0 -210.5 -80.5t-81.5 -206.5q0 -94 60.5 -156.5
t152.5 -62.5q50 0 88 12t71 38l24 135h-183z" />
    <glyph glyph-name="H" unicode="H" horiz-adv-x="766" 
d="M643 0h-135l56 316h-340l-56 -316h-135l129 730h135l-53 -301h340l53 301h135z" />
    <glyph glyph-name="I" unicode="I" horiz-adv-x="291" 
d="M33 0l129 730h135l-129 -730h-135z" />
    <glyph glyph-name="J" unicode="J" horiz-adv-x="472" 
d="M492 730l-87 -488q-21 -119 -94 -186.5t-181 -67.5q-40 0 -78.5 12t-61.5 32l22 128q22 -25 53 -39t63 -14q59 0 95 34.5t48 103.5l86 485h135z" />
    <glyph glyph-name="K" unicode="K" horiz-adv-x="672" 
d="M734 730l-362 -346l254 -384h-151l-242 368l-65 -368h-135l129 730h135l-58 -328l335 328h160z" />
    <glyph glyph-name="L" unicode="L" horiz-adv-x="532" 
d="M467 0h-434l129 730h135l-109 -618h299z" />
    <glyph glyph-name="M" unicode="M" horiz-adv-x="1008" 
d="M324 759l176 -532l359 532l83 -759h-135l-41 433l-307 -454l-148 454l-196 -433h-139z" />
    <glyph glyph-name="N" unicode="N" horiz-adv-x="802" 
d="M166 758l426 -504l84 476h132l-133 -758l-427 504l-84 -476h-131z" />
    <glyph glyph-name="O" unicode="O" horiz-adv-x="817" 
d="M173 618q58 60 133.5 92t159.5 32q146 0 241.5 -94.5t95.5 -241.5q0 -82 -31.5 -158.5t-88.5 -135.5q-58 -60 -133 -92t-159 -32q-146 0 -242 95t-96 241q0 82 31.5 158.5t88.5 135.5zM668 398q0 97 -59.5 158t-154.5 61q-113 0 -189 -84t-76 -201q0 -97 59 -158t154 -61
q113 0 189.5 84t76.5 201z" />
    <glyph glyph-name="P" unicode="P" horiz-adv-x="580" 
d="M604 531q0 -114 -86.5 -183t-229.5 -69h-71l-49 -279h-135l129 730h197q114 0 179.5 -53.5t65.5 -145.5zM345 619h-68l-40 -229h70q76 0 120 35.5t44 95.5q0 46 -33.5 72t-92.5 26z" />
    <glyph glyph-name="Q" unicode="Q" horiz-adv-x="818" 
d="M675 103l80 -103h-138l-30 38q-44 -25 -93.5 -37.5t-102.5 -12.5q-146 0 -242 95t-96 241q0 82 31.5 158.5t88.5 135.5q58 60 133.5 92t159.5 32q146 0 241.5 -94.5t95.5 -241.5q0 -85 -33.5 -164.5t-94.5 -138.5zM668 398q0 97 -59.5 158t-154.5 61q-113 0 -189 -84
t-76 -201q0 -97 59 -158t154 -61q28 0 55 6t53 18l-145 186h138l94 -120q34 40 52.5 90.5t18.5 104.5z" />
    <glyph glyph-name="R" unicode="R" horiz-adv-x="644" 
d="M284 282h-68l-50 -282h-133l129 730h202q114 0 178.5 -52t64.5 -143q0 -81 -50.5 -143.5t-138.5 -89.5l180 -302h-149zM347 619h-72l-40 -229h72q73 0 117 36t44 96q0 46 -32 71.5t-89 25.5z" />
    <glyph glyph-name="S" unicode="S" horiz-adv-x="549" 
d="M-1 65l24 134q46 -45 101 -70.5t109 -25.5q65 0 104.5 29.5t39.5 77.5q0 26 -14.5 46t-48.5 38l-104 54q-65 33 -93.5 71.5t-28.5 90.5q0 99 76.5 165.5t192.5 66.5q56 0 108 -20t85 -53l-23 -134q-39 44 -87.5 68t-99.5 24q-54 0 -88 -26.5t-34 -69.5q0 -22 13.5 -39
t50.5 -36l96 -50q72 -37 101 -76t29 -94q0 -106 -82 -177t-205 -71q-63 0 -124.5 22t-97.5 55z" />
    <glyph glyph-name="T" unicode="T" horiz-adv-x="642" 
d="M706 730l-20 -112h-234l-108 -618h-135l108 618h-233l20 112h602z" />
    <glyph glyph-name="U" unicode="U" horiz-adv-x="710" 
d="M201 244q0 -64 37 -100.5t100 -36.5q71 0 117 47t62 135l78 441h135l-78 -442q-25 -140 -112.5 -220t-215.5 -80q-115 0 -187 65.5t-72 174.5q0 18 1 32.5t4 27.5l78 442h135l-77 -441q-3 -14 -4 -25t-1 -20z" />
    <glyph glyph-name="V" unicode="V" horiz-adv-x="755" 
d="M830 730l-508 -759l-229 759h137l139 -492l318 492h143z" />
    <glyph glyph-name="W" unicode="W" horiz-adv-x="1044" 
d="M673 -29l-114 492l-293 -492l-173 759h138l97 -459l281 480l107 -478l259 457h144z" />
    <glyph glyph-name="X" unicode="X" horiz-adv-x="739" 
d="M683 0h-149l-158 286l-257 -286h-153l349 386l-195 344h153l134 -247l222 247h153l-315 -347z" />
    <glyph glyph-name="Y" unicode="Y" horiz-adv-x="702" 
d="M432 328l-58 -328h-136l58 328l-201 402h149l138 -277l237 277h157z" />
    <glyph glyph-name="Z" unicode="Z" horiz-adv-x="660" 
d="M719 730l-498 -618h377l-20 -112h-599l499 618h-370l20 112h591z" />
    <glyph glyph-name="a" unicode="a" horiz-adv-x="550" 
d="M438 0h-129l7 39q-23 -23 -58.5 -37t-73.5 -14q-73 0 -121 43t-48 110q0 80 63 132t158 52q38 0 71.5 -12.5t52.5 -33.5l7 39q1 4 1.5 8t0.5 11q0 34 -28.5 53.5t-78.5 19.5q-35 0 -73 -11.5t-79 -33.5l20 119q38 19 84 29.5t91 10.5q106 0 156 -54.5t33 -151.5zM225 86
q49 0 83.5 24t34.5 60q0 29 -25.5 46.5t-65.5 17.5q-49 0 -83.5 -24t-34.5 -61q0 -29 25.5 -46t65.5 -17z" />
    <glyph glyph-name="b" unicode="b" 
d="M406 524q95 0 156 -65.5t61 -166.5q0 -125 -83.5 -214.5t-204.5 -89.5q-52 0 -98 25t-65 64l-13 -77h-132l134 760h132l-57 -320q25 38 71 61t99 23zM490 278q0 59 -35 95.5t-92 36.5q-69 0 -116 -52t-47 -126q0 -58 36 -94.5t92 -36.5q69 0 115.5 51.5t46.5 125.5z" />
    <glyph glyph-name="c" unicode="c" horiz-adv-x="470" 
d="M161 234q0 -57 37.5 -94t95.5 -37q32 0 59.5 9.5t57.5 30.5l-22 -127q-27 -14 -57 -21t-62 -7q-101 0 -168.5 65t-67.5 164q0 128 90.5 217.5t221.5 89.5q32 0 64.5 -9.5t57.5 -25.5l-22 -125q-25 23 -51.5 33.5t-58.5 10.5q-74 0 -124.5 -50.5t-50.5 -123.5z" />
    <glyph glyph-name="d" unicode="d" 
d="M32 220q0 125 83.5 214.5t204.5 89.5q55 0 99.5 -24.5t64.5 -64.5l57 325h132l-134 -760h-132l13 72q-26 -38 -72 -61t-99 -23q-94 0 -155.5 65.5t-61.5 166.5zM455 279q0 58 -35.5 94.5t-91.5 36.5q-69 0 -115.5 -51t-46.5 -125q0 -60 35 -96.5t92 -36.5q69 0 115.5 52
t46.5 126z" />
    <glyph glyph-name="e" unicode="e" horiz-adv-x="579" 
d="M280 -12q-108 0 -177 67t-69 170q0 123 87 211t210 88t179 -84.5t25 -217.5h-382q4 -58 45.5 -91t111.5 -33q46 0 94 15.5t86 41.5l-21 -116q-40 -25 -88 -38t-101 -13zM320 418q-51 0 -92 -29t-61 -79h261q2 48 -27.5 78t-80.5 30z" />
    <glyph glyph-name="f" unicode="f" horiz-adv-x="370" 
d="M373 772q23 0 41.5 -3.5t31.5 -9.5l-19 -110q-10 6 -22 9t-26 3q-36 0 -59 -21.5t-31 -62.5l-12 -65h115l-18 -105h-115l-72 -407h-130l72 407h-84l18 105h84l14 73q14 86 71 136.5t141 50.5z" />
    <glyph glyph-name="g" unicode="g" horiz-adv-x="653" 
d="M494 512h132l-82 -470q-23 -127 -108.5 -195.5t-219.5 -68.5q-52 0 -105.5 14.5t-82.5 37.5l22 126q30 -30 75 -46t97 -16q79 0 127 36t61 105l10 54q-26 -37 -68 -57.5t-95 -20.5q-93 0 -155.5 64t-62.5 161q0 119 81 203.5t197 84.5q53 0 99 -25t65 -62zM299 124
q64 0 109 44.5t47 109.5q3 58 -33.5 95t-94.5 37q-63 0 -108.5 -44.5t-47.5 -108.5q-3 -58 33.5 -95.5t94.5 -37.5z" />
    <glyph glyph-name="h" unicode="h" horiz-adv-x="603" 
d="M329 405q-45 0 -77.5 -31t-41.5 -81l-51 -293h-132l134 760h132l-55 -308q29 34 69 53t84 19q88 0 130 -56.5t26 -150.5l-56 -317h-132l51 293q10 50 -11.5 80.5t-69.5 31.5z" />
    <glyph glyph-name="i" unicode="i" horiz-adv-x="275" 
d="M209 744h2q32 0 54 -22t22 -54t-22 -54t-54 -22h-2q-32 0 -54.5 22t-22.5 54t22.5 54t54.5 22zM27 0l89 512h133l-90 -512h-132z" />
    <glyph glyph-name="j" unicode="j" horiz-adv-x="275" 
d="M209 744h2q32 0 54 -22t22 -54t-22 -54t-54 -22h-2q-32 0 -54.5 22t-22.5 54t22.5 54t54.5 22zM-65 -108q36 0 58 21.5t29 64.5l94 534h133l-95 -535q-16 -91 -71 -141.5t-138 -50.5q-15 0 -32.5 2t-27.5 5l18 105q11 -3 18 -4t14 -1z" />
    <glyph glyph-name="k" unicode="k" horiz-adv-x="578" 
d="M27 0l134 760h131l-83 -471l231 223h160l-264 -245l182 -267h-149l-166 256l-45 -256h-131z" />
    <glyph glyph-name="l" unicode="l" horiz-adv-x="275" 
d="M27 0l134 760h132l-134 -760h-132z" />
    <glyph glyph-name="m" unicode="m" horiz-adv-x="899" 
d="M635 405q-41 0 -70.5 -28t-38.5 -74l-53 -303h-132l54 304q7 45 -13 73t-62 28q-41 0 -70.5 -28.5t-37.5 -73.5l-53 -303h-132l89 512h133l-11 -59q26 32 67.5 51.5t85.5 19.5q47 0 81 -21t51 -60q37 41 78.5 61t88.5 20q83 0 126.5 -57t28.5 -144l-58 -323h-132l54 304
q8 45 -12 73t-62 28z" />
    <glyph glyph-name="n" unicode="n" horiz-adv-x="603" 
d="M329 405q-45 0 -77.5 -31t-41.5 -81l-51 -293h-132l89 512h133l-11 -60q29 34 69 53t84 19q88 0 130 -56.5t26 -150.5l-56 -317h-132l51 293q10 50 -11.5 80.5t-69.5 31.5z" />
    <glyph glyph-name="o" unicode="o" horiz-adv-x="612" 
d="M578 286q0 -121 -87 -209.5t-212 -88.5q-106 0 -175.5 67.5t-69.5 170.5q0 121 87 209.5t212 88.5q106 0 175.5 -67.5t69.5 -170.5zM449 280q0 59 -34.5 94.5t-90.5 35.5q-68 0 -114.5 -51.5t-46.5 -126.5q0 -58 34.5 -94t90.5 -36q68 0 114.5 51.5t46.5 126.5z" />
    <glyph glyph-name="p" unicode="p" 
d="M406 524q95 0 156 -65.5t61 -166.5q0 -125 -83.5 -214.5t-204.5 -89.5q-52 0 -98 25t-65 64l-50 -287h-132l126 722h133l-13 -72q25 38 71 61t99 23zM490 278q0 59 -35 95.5t-92 36.5q-69 0 -116 -52t-47 -126q0 -58 36 -94.5t92 -36.5q69 0 115.5 51.5t46.5 125.5z" />
    <glyph glyph-name="q" unicode="q" 
d="M32 220q0 125 83.5 214.5t204.5 89.5q55 0 99.5 -24.5t64.5 -64.5l13 77h132l-127 -722h-132l50 282q-26 -38 -72 -61t-99 -23q-94 0 -155.5 65.5t-61.5 166.5zM455 279q0 58 -35.5 94.5t-91.5 36.5q-69 0 -115.5 -51t-46.5 -125q0 -60 35 -96.5t92 -36.5q69 0 115.5 52
t46.5 126z" />
    <glyph glyph-name="r" unicode="r" horiz-adv-x="398" 
d="M414 520l-24 -135q-75 14 -125.5 -21.5t-63.5 -113.5l-45 -250h-132l90 512h132l-13 -79q30 47 78 70t103 17z" />
    <glyph glyph-name="s" unicode="s" horiz-adv-x="443" 
d="M6 41l21 119q28 -31 71 -50t87 -19q37 0 60.5 16.5t23.5 42.5q0 15 -8 24.5t-30 19.5l-69 31q-50 22 -74 52t-24 71q0 76 59 126t149 50q41 0 82 -13t65 -33l-20 -116q-29 26 -66 41.5t-73 15.5q-32 0 -52 -14.5t-20 -38.5q0 -15 10 -26t36 -23l73 -33q45 -20 66 -48
t21 -67q0 -78 -63 -129.5t-156 -51.5q-46 0 -93 15t-76 38z" />
    <glyph glyph-name="t" unicode="t" horiz-adv-x="418" 
d="M257 407l-40 -227q-7 -37 9.5 -57.5t52.5 -20.5q22 0 42 7t39 20l-21 -117q-21 -11 -48.5 -17.5t-56.5 -6.5q-83 0 -124.5 48t-26.5 130l42 241h-84l18 105h84l22 119l139 42l-29 -161h137l-18 -105h-137z" />
    <glyph glyph-name="u" unicode="u" horiz-adv-x="600" 
d="M269 102q46 0 78.5 30.5t41.5 80.5l53 299h132l-90 -512h-132l10 60q-27 -34 -66.5 -53t-82.5 -19q-88 0 -130.5 57.5t-25.5 153.5l55 313h132l-53 -299q-9 -51 12 -81t66 -30z" />
    <glyph glyph-name="v" unicode="v" horiz-adv-x="582" 
d="M190 512l90 -294l199 294h145l-386 -539l-190 539h142z" />
    <glyph glyph-name="w" unicode="w" horiz-adv-x="827" 
d="M259 216l201 318l87 -318l185 296h137l-360 -540l-89 328l-211 -328l-161 540h133z" />
    <glyph glyph-name="x" unicode="x" horiz-adv-x="564" 
d="M510 0h-143l-96 175l-160 -175h-147l245 264l-138 248h142l88 -159l143 159h146l-228 -249z" />
    <glyph glyph-name="y" unicode="y" horiz-adv-x="593" 
d="M130 -210h-140l206 289l-143 433h140l92 -304l202 304h143z" />
    <glyph glyph-name="z" unicode="z" horiz-adv-x="515" 
d="M537 512l-336 -407h250l-19 -105h-453l336 407h-248l18 105h452z" />
    <glyph glyph-name="NULL" horiz-adv-x="369" 
 />
    <glyph glyph-name="uni00A0" horiz-adv-x="214" 
 />
    </font>
</defs>
</svg>
