<?xml version="1.0" standalone="no"?>
<!DOCTYPE svg PUBLIC "-//W3C//DTD SVG 1.1//EN" "http://www.w3.org/Graphics/SVG/1.1/DTD/svg11.dtd" >
<svg xmlns="http://www.w3.org/2000/svg" xmlns:xlink="http://www.w3.org/1999/xlink" version="1.1">
<metadata>
Created by FontForge 20170731 at Thu May 28 14:59:41 2020
 By Aleksey,,,
Copyright 2021, Kris Sowersby, Klim Type Foundry.
</metadata>
<defs>
<font id="TestGeograph-ThinItalic" horiz-adv-x="659" >
  <font-face 
    font-family="Copyright Klim Type Foundry"
    font-weight="250"
    font-style="italic"
    font-stretch="normal"
    units-per-em="1000"
    panose-1="2 11 4 3 3 2 2 13 2 3"
    ascent="800"
    descent="-200"
    x-height="500"
    cap-height="730"
    bbox="-124 -222 1056 772"
    underline-thickness="30"
    underline-position="-255"
    slope="-10"
    unicode-range="U+0020-007A"
  />
<missing-glyph horiz-adv-x="584" 
 />
    <glyph glyph-name=".notdef" horiz-adv-x="584" 
 />
    <glyph glyph-name=".null" horiz-adv-x="0" 
 />
    <glyph glyph-name="nonmarkingreturn" horiz-adv-x="333" 
 />
    <glyph glyph-name="space" unicode=" " horiz-adv-x="240" 
 />
    <glyph glyph-name="comma" unicode="," horiz-adv-x="230" 
d="M125 50l-113 -162l-22 14l95 172z" />
    <glyph glyph-name="hyphen" unicode="-" horiz-adv-x="409" 
d="M87 268l6 32h241l-6 -32h-241z" />
    <glyph glyph-name="period" unicode="." horiz-adv-x="230" 
d="M76 66h1q15 0 25 -10t10 -25t-10 -25t-25 -10h-1q-15 0 -25 10t-10 25t10 25t25 10z" />
    <glyph glyph-name="zero" unicode="0" horiz-adv-x="608" 
d="M137 571q47 82 110.5 126.5t134.5 44.5q96 0 152 -76.5t56 -206.5q0 -78 -20.5 -156.5t-57.5 -143.5q-47 -82 -110.5 -126.5t-134.5 -44.5q-96 0 -152 76.5t-56 206.5q0 78 20.5 156.5t57.5 143.5zM555 460q0 114 -47 182t-128 68q-63 0 -119.5 -43t-98.5 -121
q-33 -61 -50.5 -132.5t-17.5 -143.5q0 -114 47 -182t128 -68q63 0 119.5 43t98.5 121q33 61 50.5 132.5t17.5 143.5z" />
    <glyph glyph-name="one" unicode="1" horiz-adv-x="386" 
d="M108 624l251 118l-131 -742h-34l121 689l-213 -100z" />
    <glyph glyph-name="two" unicode="2" horiz-adv-x="509" 
d="M285 252l-246 -220h391l-6 -32h-465l308 278q110 99 155 169t45 136q0 59 -36.5 92t-103.5 33q-54 0 -114 -27t-110 -73l8 44q47 42 105 66t115 24q81 0 126 -42t45 -117q0 -71 -51 -150t-166 -181z" />
    <glyph glyph-name="three" unicode="3" horiz-adv-x="509" 
d="M475 698h-350l6 32h415l-287 -299q89 -2 146.5 -52.5t57.5 -128.5q0 -110 -81 -186t-200 -76q-58 0 -111 19t-89 52l8 41q34 -38 84.5 -59t107.5 -21q104 0 175 65t71 159q0 83 -65.5 127t-168.5 32z" />
    <glyph glyph-name="four" unicode="4" horiz-adv-x="579" 
d="M431 730h39l-405 -499h315l34 197h34l-34 -197h152l-6 -30h-152l-35 -201h-34l35 201h-373z" />
    <glyph glyph-name="five" unicode="5" horiz-adv-x="498" 
d="M523 698h-282l-81 -254q132 10 211 -42t79 -153q0 -111 -80.5 -186t-201.5 -75q-55 0 -104 17.5t-81 47.5l8 41q31 -35 77.5 -54.5t99.5 -19.5q109 0 178 64.5t69 164.5q0 92 -80.5 134.5t-215.5 25.5l100 321h310z" />
    <glyph glyph-name="six" unicode="6" horiz-adv-x="584" 
d="M308 484q99 0 164 -65t65 -163q0 -111 -78 -189.5t-185 -78.5q-99 0 -165 65t-66 165q0 53 18.5 99t60.5 97l259 316h38l-225 -278q23 15 52.5 23.5t61.5 8.5zM274 20q93 0 161.5 68.5t68.5 165.5q0 86 -56 142t-142 56q-93 0 -161.5 -68.5t-68.5 -165.5q0 -86 56 -142
t142 -56z" />
    <glyph glyph-name="seven" unicode="7" horiz-adv-x="506" 
d="M89 730h494l-466 -730h-38l445 698h-441z" />
    <glyph glyph-name="eight" unicode="8" horiz-adv-x="576" 
d="M397 388q61 -24 95 -70.5t34 -106.5q0 -93 -78.5 -158t-189.5 -65q-98 0 -162.5 52.5t-64.5 139.5q0 79 56 140.5t142 78.5q-47 21 -73 59t-26 86q0 81 66 139.5t162 58.5q87 0 143.5 -47t56.5 -123q0 -62 -45 -113t-116 -71zM525 572q0 62 -47 100.5t-120 38.5
q-82 0 -138.5 -49.5t-56.5 -117.5q0 -61 47.5 -100t118.5 -39q82 0 139 49.5t57 117.5zM492 211q0 75 -56.5 122t-143.5 47q-95 0 -161.5 -59t-66.5 -141q0 -71 56 -116.5t138 -45.5q98 0 166 56.5t68 136.5z" />
    <glyph glyph-name="nine" unicode="9" horiz-adv-x="584" 
d="M317 246q-99 0 -164 65t-65 163q0 111 78 189.5t185 78.5q99 0 165 -65t66 -165q0 -53 -18.5 -99t-60.5 -97l-259 -316h-38l225 278q-23 -15 -52.5 -23.5t-61.5 -8.5zM351 710q-93 0 -161.5 -68.5t-68.5 -165.5q0 -86 56 -142t142 -56q93 0 161.5 68.5t68.5 165.5
q0 86 -56 142t-142 56z" />
    <glyph glyph-name="A" unicode="A" horiz-adv-x="706" 
d="M-19 0l461 753l195 -753h-34l-67 257h-361l-157 -257h-37zM528 289l-99 382l-234 -382h333z" />
    <glyph glyph-name="B" unicode="B" horiz-adv-x="541" 
d="M219 0h-163l129 730h130q97 0 147.5 -41t50.5 -118q0 -68 -44.5 -119.5t-118.5 -68.5q74 -13 112 -53t38 -106q0 -98 -79 -161t-202 -63zM213 698l-53 -302h93q105 0 165.5 47t60.5 128q0 63 -43.5 95t-129.5 32h-93zM154 364l-58 -332h129q108 0 174.5 52.5t66.5 139.5
q0 66 -48.5 103t-134.5 37h-129z" />
    <glyph glyph-name="C" unicode="C" horiz-adv-x="687" 
d="M95 319q0 -125 82.5 -212t204.5 -87q70 0 124.5 19.5t100.5 59.5l-7 -44q-47 -34 -99.5 -50.5t-118.5 -16.5q-136 0 -228.5 96.5t-92.5 234.5q0 86 31 163.5t89 136.5q59 59 136 91t162 32q69 0 129 -24t97 -67l-8 -42q-32 47 -91 74t-127 27q-164 0 -274 -111.5
t-110 -279.5z" />
    <glyph glyph-name="D" unicode="D" horiz-adv-x="686" 
d="M56 0l129 730h171q143 0 228.5 -85t85.5 -226q0 -86 -35 -164.5t-99 -137.5q-62 -57 -142.5 -87t-170.5 -30h-167zM636 415q0 129 -77.5 206t-210.5 77h-135l-117 -666h129q82 0 156 27.5t131 79.5q59 54 91.5 125.5t32.5 150.5z" />
    <glyph glyph-name="E" unicode="E" horiz-adv-x="571" 
d="M466 0h-410l129 730h406l-6 -32h-372l-55 -310h341l-5 -32h-341l-57 -324h376z" />
    <glyph glyph-name="F" unicode="F" horiz-adv-x="528" 
d="M90 0h-34l129 730h386l-6 -32h-352l-55 -310h321l-5 -32h-321z" />
    <glyph glyph-name="G" unicode="G" horiz-adv-x="770" 
d="M456 378h261l-48 -272q-57 -60 -127 -89t-156 -29q-139 0 -232 96.5t-93 234.5q0 86 31 163.5t89 136.5q59 59 136 91t162 32q81 0 150.5 -36.5t103.5 -94.5l-8 -44q-35 67 -100 105t-146 38q-164 0 -274 -111.5t-110 -279.5q0 -125 83.5 -212t207.5 -87q75 0 136.5 23.5
t114.5 72.5l41 230h-238z" />
    <glyph glyph-name="H" unicode="H" horiz-adv-x="751" 
d="M607 0h-34l63 356h-483l-63 -356h-34l129 730h34l-61 -342h483l61 342h34z" />
    <glyph glyph-name="I" unicode="I" horiz-adv-x="234" 
d="M56 0l129 730h34l-129 -730h-34z" />
    <glyph glyph-name="J" unicode="J" horiz-adv-x="439" 
d="M444 730l-92 -520q-18 -106 -78 -164t-151 -58q-41 0 -76.5 15t-58.5 41l7 41q21 -30 55 -47.5t71 -17.5q80 0 130.5 49t66.5 142l92 519h34z" />
    <glyph glyph-name="K" unicode="K" horiz-adv-x="602" 
d="M642 730l-444 -354l340 -376h-43l-339 375l-66 -375h-34l129 730h34l-61 -347l436 347h48z" />
    <glyph glyph-name="L" unicode="L" horiz-adv-x="496" 
d="M432 0h-376l129 730h34l-123 -698h342z" />
    <glyph glyph-name="M" unicode="M" horiz-adv-x="976" 
d="M315 753l141 -687l383 687l48 -753h-33l-41 644l-372 -666l-137 666l-268 -644h-35z" />
    <glyph glyph-name="N" unicode="N" horiz-adv-x="791" 
d="M189 752l436 -683l117 661h34l-133 -751l-436 683l-117 -662h-34z" />
    <glyph glyph-name="O" unicode="O" horiz-adv-x="817" 
d="M178 615q57 61 131 94t155 33q145 0 238.5 -95t93.5 -240q0 -80 -30.5 -156.5t-86.5 -135.5q-57 -61 -131 -94t-155 -33q-145 0 -238.5 95t-93.5 240q0 80 30.5 156.5t86.5 135.5zM762 407q0 132 -84 217.5t-214 85.5q-75 0 -142.5 -30.5t-120.5 -87.5
q-51 -54 -78.5 -124.5t-27.5 -144.5q0 -132 84 -217.5t214 -85.5q75 0 142.5 30.5t120.5 87.5q51 54 78.5 124.5t27.5 144.5z" />
    <glyph glyph-name="P" unicode="P" horiz-adv-x="521" 
d="M539 556q0 -101 -76 -161.5t-206 -60.5h-108l-59 -334h-34l129 730h129q103 0 164 -46.5t61 -127.5zM310 698h-97l-58 -332h105q115 0 179.5 50t64.5 139q0 67 -52 105t-142 38z" />
    <glyph glyph-name="Q" unicode="Q" horiz-adv-x="817" 
d="M651 86l71 -86h-41l-54 66q-51 -39 -111 -59t-123 -20q-145 0 -238.5 95t-93.5 240q0 80 30.5 156.5t86.5 135.5q57 61 131 94t155 33q145 0 238.5 -95t93.5 -240q0 -90 -38.5 -174.5t-106.5 -145.5zM762 406q0 132 -84 217.5t-214 85.5q-75 0 -142.5 -30.5t-120.5 -87.5
q-51 -54 -78.5 -124.5t-27.5 -144.5q0 -132 84 -217.5t214 -85.5q58 0 112.5 18.5t100.5 53.5l-164 200h39l149 -180q62 56 97 134t35 161z" />
    <glyph glyph-name="R" unicode="R" horiz-adv-x="599" 
d="M256 334h-107l-59 -334h-34l129 730h140q100 0 157.5 -44t57.5 -123q0 -92 -67.5 -154.5t-177.5 -72.5l238 -336h-40zM319 698h-106l-59 -333h109q108 0 175 54t67 144q0 63 -50 99t-136 36z" />
    <glyph glyph-name="S" unicode="S" horiz-adv-x="521" 
d="M1 69l8 42q35 -42 88.5 -66t108.5 -24q94 0 156 51.5t62 131.5q0 38 -21 67.5t-71 58.5l-111 66q-59 35 -82 69.5t-23 78.5q0 84 64.5 141t159.5 57q52 0 97.5 -19t84.5 -57l-7 -43q-35 42 -80 64.5t-95 22.5q-83 0 -136.5 -47t-53.5 -119q0 -35 21 -62.5t79 -62.5
l109 -65q55 -33 77 -67t22 -83q0 -92 -72.5 -154t-179.5 -62q-58 0 -115.5 23t-89.5 58z" />
    <glyph glyph-name="T" unicode="T" horiz-adv-x="602" 
d="M667 730l-6 -32h-264l-123 -698h-34l123 698h-264l6 32h562z" />
    <glyph glyph-name="U" unicode="U" horiz-adv-x="682" 
d="M114 220q0 -93 53.5 -146.5t144.5 -53.5q103 0 171.5 68.5t90.5 193.5l79 448h34l-80 -452q-24 -138 -102 -214t-196 -76q-101 0 -165.5 63.5t-64.5 166.5q0 14 1.5 29t4.5 31l80 452h34l-79 -448q-3 -16 -4.5 -32t-1.5 -30z" />
    <glyph glyph-name="V" unicode="V" horiz-adv-x="706" 
d="M766 730l-461 -753l-195 753h34l174 -672l412 672h36z" />
    <glyph glyph-name="W" unicode="W" horiz-adv-x="996" 
d="M656 -23l-87 671l-337 -671l-122 753h35l104 -651l338 673l88 -673l346 651h35z" />
    <glyph glyph-name="X" unicode="X" horiz-adv-x="679" 
d="M610 0h-37l-212 360l-339 -360h-41l363 386l-204 344h37l189 -321l302 321h41l-326 -346z" />
    <glyph glyph-name="Y" unicode="Y" horiz-adv-x="628" 
d="M350 360l-63 -360h-34l63 360l-206 370h37l189 -340l309 340h43z" />
    <glyph glyph-name="Z" unicode="Z" horiz-adv-x="624" 
d="M688 730l-623 -698h489l-6 -32h-555l623 698h-479l6 32h545z" />
    <glyph glyph-name="a" unicode="a" horiz-adv-x="516" 
d="M343 0l11 65q-29 -34 -73.5 -55.5t-92.5 -21.5q-71 0 -118 39t-47 99q0 72 62.5 123t150.5 51q48 0 87 -20.5t59 -55.5l23 125q1 10 1.5 14.5t0.5 8.5q0 48 -32.5 78t-85.5 30q-39 0 -77.5 -11.5t-80.5 -35.5l7 37q35 20 75.5 31t80.5 11q75 0 115.5 -45.5t28.5 -115.5
l-62 -351h-33zM371 164q0 47 -38 76.5t-97 29.5q-76 0 -128.5 -41.5t-52.5 -102.5q0 -48 38.5 -78t97.5 -30q73 0 126.5 43t53.5 103z" />
    <glyph glyph-name="b" unicode="b" 
d="M382 512q100 0 164 -66t64 -168q0 -117 -82.5 -203.5t-201.5 -86.5q-75 0 -135 46t-75 117l-27 -151h-33l134 760h33l-69 -393q30 66 91.5 105.5t136.5 39.5zM576 277q0 91 -55 147.5t-143 56.5q-103 0 -175.5 -77.5t-72.5 -185.5q0 -87 56.5 -143t142.5 -56
q104 0 175.5 75.5t71.5 182.5z" />
    <glyph glyph-name="c" unicode="c" horiz-adv-x="521" 
d="M83 220q0 -86 56 -143.5t143 -57.5q48 0 90 17t77 51l-7 -43q-36 -28 -76.5 -42t-83.5 -14q-100 0 -166.5 66.5t-66.5 165.5q0 119 82.5 205.5t202.5 86.5q48 0 90.5 -18t75.5 -52l-7 -42q-29 38 -70.5 59.5t-88.5 21.5q-108 0 -179.5 -76t-71.5 -185z" />
    <glyph glyph-name="d" unicode="d" 
d="M49 222q0 117 82.5 203.5t201.5 86.5q76 0 136 -46t75 -117l72 411h33l-134 -760h-33l23 133q-30 -66 -91.5 -105.5t-136.5 -39.5q-100 0 -164 66t-64 168zM529 282q0 87 -56.5 143t-142.5 56q-104 0 -175.5 -75.5t-71.5 -182.5q0 -91 55 -147.5t143 -56.5
q103 0 175.5 77.5t72.5 185.5z" />
    <glyph glyph-name="e" unicode="e" horiz-adv-x="590" 
d="M49 216q0 123 84 209.5t203 86.5q107 0 165 -75t42 -189h-460q-1 -11 -1.5 -18.5t-0.5 -13.5q0 -85 57.5 -141t147.5 -56q59 0 113 21.5t96 61.5l-7 -42q-42 -35 -94.5 -53.5t-108.5 -18.5q-104 0 -170 64.5t-66 163.5zM334 481q-91 0 -159 -56.5t-87 -146.5h425
q4 91 -44.5 147t-134.5 56z" />
    <glyph glyph-name="f" unicode="f" horiz-adv-x="314" 
d="M339 772q15 0 28.5 -2t23.5 -6l-6 -35q-10 5 -22.5 7.5t-27.5 2.5q-49 0 -81 -31.5t-43 -92.5l-20 -115h142l-5 -30h-142l-83 -470h-33l83 470h-94l5 30h94l21 120q13 70 55.5 111t104.5 41z" />
    <glyph glyph-name="g" unicode="g" 
d="M570 500h33l-85 -481q-20 -117 -95 -179t-197 -62q-49 0 -97.5 16t-80.5 43l7 41q26 -30 74.5 -49.5t96.5 -19.5q112 0 176.5 53t83.5 160l21 118q-29 -64 -91 -102t-137 -38q-100 0 -165 64.5t-65 163.5q0 114 83 199t202 85q75 0 135 -45t75 -114zM283 31
q102 0 174 75.5t72 180.5q0 85 -56 139.5t-142 54.5q-103 0 -175.5 -74.5t-72.5 -177.5q0 -88 56 -143t144 -55z" />
    <glyph glyph-name="h" unicode="h" horiz-adv-x="581" 
d="M333 481q-70 0 -123.5 -49.5t-66.5 -124.5l-54 -307h-33l134 760h33l-63 -358q28 51 76.5 80.5t104.5 29.5q88 0 129 -55.5t25 -150.5l-54 -306h-33l54 305q15 83 -18.5 129.5t-110.5 46.5z" />
    <glyph glyph-name="i" unicode="i" horiz-adv-x="233" 
d="M188 693h1q13 0 21.5 -8.5t8.5 -21.5t-8.5 -21.5t-21.5 -8.5h-1q-13 0 -21.5 8.5t-8.5 21.5t8.5 21.5t21.5 8.5zM56 0l88 500h33l-88 -500h-33z" />
    <glyph glyph-name="j" unicode="j" horiz-adv-x="233" 
d="M188 693h1q13 0 21.5 -8.5t8.5 -21.5t-8.5 -21.5t-21.5 -8.5h-1q-13 0 -21.5 8.5t-8.5 21.5t8.5 21.5t21.5 8.5zM-81 -183q53 0 85 33.5t44 102.5l96 547h33l-96 -548q-14 -78 -57 -121.5t-108 -43.5q-12 0 -21.5 1t-18.5 3l5 30q11 -2 19.5 -3t18.5 -1z" />
    <glyph glyph-name="k" unicode="k" horiz-adv-x="510" 
d="M56 0l134 760h33l-86 -489l325 229h51l-337 -235l259 -265h-43l-257 263l-46 -263h-33z" />
    <glyph glyph-name="l" unicode="l" horiz-adv-x="233" 
d="M56 0l134 760h33l-134 -760h-33z" />
    <glyph glyph-name="m" unicode="m" horiz-adv-x="907" 
d="M666 481q-68 0 -119 -48t-65 -124l-54 -309h-33l55 310q14 79 -18.5 125t-104.5 46q-68 0 -119 -48t-65 -124l-54 -309h-33l88 500h33l-17 -96q27 51 73.5 79.5t102.5 28.5q61 0 100 -33t47 -90q31 57 81 90t109 33q82 0 123.5 -55.5t26.5 -141.5l-56 -315h-33l55 310
q14 79 -18.5 125t-104.5 46z" />
    <glyph glyph-name="n" unicode="n" horiz-adv-x="581" 
d="M333 481q-70 0 -123.5 -49.5t-66.5 -124.5l-54 -307h-33l88 500h33l-17 -98q28 51 76.5 80.5t104.5 29.5q88 0 129 -55.5t25 -150.5l-54 -306h-33l54 305q15 83 -18.5 129.5t-110.5 46.5z" />
    <glyph glyph-name="o" unicode="o" horiz-adv-x="609" 
d="M560 279q0 -117 -82 -204t-198 -87q-101 0 -166 66t-65 167q0 117 82 204t198 87q101 0 166 -66t65 -167zM527 276q0 91 -55 148t-143 57q-104 0 -175.5 -76t-71.5 -184q0 -89 55.5 -145.5t142.5 -56.5q103 0 175 75.5t72 181.5z" />
    <glyph glyph-name="p" unicode="p" 
d="M382 512q100 0 164 -66t64 -168q0 -117 -82.5 -203.5t-201.5 -86.5q-75 0 -135 46t-75 117l-64 -361h-33l125 710h33l-23 -133q30 66 91.5 105.5t136.5 39.5zM576 277q0 91 -55 147.5t-143 56.5q-103 0 -175.5 -77.5t-72.5 -185.5q0 -87 56.5 -143t142.5 -56
q104 0 175.5 75.5t71.5 182.5z" />
    <glyph glyph-name="q" unicode="q" 
d="M49 222q0 117 82.5 203.5t201.5 86.5q76 0 136 -46t75 -117l26 151h33l-125 -710h-33l60 343q-30 -66 -91.5 -105.5t-136.5 -39.5q-100 0 -164 66t-64 168zM529 282q0 87 -56.5 143t-142.5 56q-104 0 -175.5 -75.5t-71.5 -182.5q0 -91 55 -147.5t143 -56.5
q103 0 175.5 77.5t72.5 185.5z" />
    <glyph glyph-name="r" unicode="r" horiz-adv-x="358" 
d="M363 505l-6 -32q-79 16 -142.5 -35.5t-81.5 -156.5l-50 -281h-33l88 500h33l-19 -110q31 63 88.5 95t122.5 20z" />
    <glyph glyph-name="s" unicode="s" horiz-adv-x="424" 
d="M16 43l7 40q26 -31 64 -48t78 -17q65 0 107.5 34.5t42.5 86.5q0 25 -14.5 44t-47.5 37l-81 45q-46 26 -63.5 50t-17.5 55q0 61 48 101.5t118 40.5q40 0 75 -13t60 -38l-7 -40q-26 30 -58.5 45.5t-70.5 15.5q-57 0 -95 -30.5t-38 -77.5q0 -24 15 -43t54 -41l81 -45
q40 -22 57.5 -46t17.5 -56q0 -64 -53.5 -109.5t-129.5 -45.5q-44 0 -86 15.5t-63 39.5z" />
    <glyph glyph-name="t" unicode="t" horiz-adv-x="393" 
d="M187 470l-58 -327q-10 -59 13 -92t76 -33q28 0 52.5 8t49.5 25l-6 -33q-19 -14 -44.5 -22t-53.5 -8q-66 0 -99 42t-21 111l58 329h-94l5 30h94l28 158l37 20l-32 -178h167l-5 -30h-167z" />
    <glyph glyph-name="u" unicode="u" horiz-adv-x="579" 
d="M242 19q72 0 126.5 49.5t67.5 124.5l54 307h33l-88 -500h-33l17 98q-28 -51 -77 -80.5t-105 -29.5q-84 0 -125.5 56.5t-26.5 142.5l55 313h33l-54 -308q-14 -80 18.5 -126.5t104.5 -46.5z" />
    <glyph glyph-name="v" unicode="v" horiz-adv-x="530" 
d="M98 500l121 -451l298 451h37l-347 -522l-143 522h34z" />
    <glyph glyph-name="w" unicode="w" horiz-adv-x="754" 
d="M170 61l251 461l69 -461l252 439h36l-305 -522l-67 457l-250 -457l-92 522h31z" />
    <glyph glyph-name="x" unicode="x" horiz-adv-x="506" 
d="M442 0h-38l-148 237l-239 -237h-42l265 261l-150 239h38l136 -218l219 218h42l-245 -241z" />
    <glyph glyph-name="y" unicode="y" horiz-adv-x="530" 
d="M88 -210h-36l152 230l-140 480h35l129 -444l289 444h37z" />
    <glyph glyph-name="z" unicode="z" horiz-adv-x="494" 
d="M501 500l-436 -470h342l-5 -30h-405l436 470h-332l5 30h395z" />
    <glyph glyph-name="NULL" horiz-adv-x="320" 
 />
    <glyph glyph-name="uni00A0" horiz-adv-x="240" 
 />
    </font>
</defs>
</svg>
