<?xml version="1.0" standalone="no"?>
<!DOCTYPE svg PUBLIC "-//W3C//DTD SVG 1.1//EN" "http://www.w3.org/Graphics/SVG/1.1/DTD/svg11.dtd" >
<svg xmlns="http://www.w3.org/2000/svg" xmlns:xlink="http://www.w3.org/1999/xlink" version="1.1">
<metadata>
Created by FontForge 20170731 at Thu May 28 14:59:45 2020
 By Aleksey,,,
Copyright 2021, Kris Sowersby, Klim Type Foundry.
</metadata>
<defs>
<font id="TestGeograph-BlackItalic" horiz-adv-x="654" >
  <font-face 
    font-family="Copyright Klim Type Foundry"
    font-weight="900"
    font-style="italic"
    font-stretch="normal"
    units-per-em="1000"
    panose-1="2 11 10 3 3 2 2 13 2 3"
    ascent="800"
    descent="-200"
    x-height="518"
    cap-height="730"
    bbox="-111 -222 1153 772"
    underline-thickness="150"
    underline-position="-385"
    slope="-10"
    unicode-range="U+0020-007A"
  />
<missing-glyph horiz-adv-x="612" 
 />
    <glyph glyph-name=".notdef" horiz-adv-x="612" 
 />
    <glyph glyph-name=".null" horiz-adv-x="0" 
 />
    <glyph glyph-name="nonmarkingreturn" horiz-adv-x="333" 
 />
    <glyph glyph-name="space" unicode=" " horiz-adv-x="200" 
 />
    <glyph glyph-name="comma" unicode="," horiz-adv-x="284" 
d="M246 117l-209 -258l-108 56l134 303z" />
    <glyph glyph-name="hyphen" unicode="-" horiz-adv-x="352" 
d="M31 212l32 180h272l-32 -180h-272z" />
    <glyph glyph-name="period" unicode="." horiz-adv-x="284" 
d="M113 214h2q47 0 79.5 -32t32.5 -79t-32.5 -79t-79.5 -32h-2q-47 0 -79.5 32t-32.5 79t32.5 79t79.5 32z" />
    <glyph glyph-name="zero" unicode="0" horiz-adv-x="681" 
d="M138 593q52 72 122 110.5t149 38.5q117 0 191 -84t74 -218q0 -82 -25 -161t-70 -142q-52 -72 -122 -110.5t-149 -38.5q-117 0 -191 84t-74 218q0 82 25 161t70 142zM487 429q0 67 -25.5 105t-70.5 38q-67 0 -114 -82.5t-47 -188.5q0 -67 25.5 -105t70.5 -38
q67 0 114 82.5t47 188.5z" />
    <glyph glyph-name="one" unicode="1" horiz-adv-x="430" 
d="M78 614l375 146l-134 -760h-190l88 500l-171 -70z" />
    <glyph glyph-name="two" unicode="2" horiz-adv-x="552" 
d="M406 278l-112 -122h218l-28 -156h-545l255 273q63 68 76.5 83t24.5 28q36 43 52.5 74t16.5 56q0 27 -19.5 42t-55.5 15q-44 0 -104 -26t-117 -67l32 182q52 38 118.5 60t131.5 22q95 0 152 -50t57 -132q0 -62 -31.5 -122.5t-121.5 -159.5z" />
    <glyph glyph-name="three" unicode="3" horiz-adv-x="539" 
d="M320 574h-229l28 156h497l-216 -293q56 -24 84.5 -65.5t28.5 -98.5q0 -117 -92 -201t-227 -84q-66 0 -118.5 15.5t-89.5 45.5l31 176q36 -38 82.5 -59t97.5 -21q59 0 97.5 30.5t38.5 76.5q0 45 -45.5 70.5t-132.5 30.5z" />
    <glyph glyph-name="four" unicode="4" horiz-adv-x="651" 
d="M377 730h198l-291 -436h99l24 138h170l-24 -138h94l-26 -148h-94l-26 -146h-170l26 146h-373z" />
    <glyph glyph-name="five" unicode="5" horiz-adv-x="526" 
d="M539 574h-233l-26 -89q107 -19 162.5 -72.5t55.5 -137.5q0 -124 -90 -205.5t-233 -81.5q-54 0 -108 15.5t-81 38.5l31 176q32 -33 78.5 -53t93.5 -20q58 0 92.5 26t34.5 70q0 47 -56.5 73t-181.5 33l112 383h377z" />
    <glyph glyph-name="six" unicode="6" horiz-adv-x="603" 
d="M575 278q0 -123 -85.5 -206.5t-209.5 -83.5q-111 0 -183 69t-72 170q0 65 26.5 126t90.5 140l192 237h210l-190 -226q95 -6 158 -70.5t63 -155.5zM290 150q48 0 81 33.5t33 82.5q0 41 -27 68.5t-67 27.5q-48 0 -81 -33.5t-33 -82.5q0 -41 27 -68.5t67 -27.5z" />
    <glyph glyph-name="seven" unicode="7" horiz-adv-x="594" 
d="M108 730h569l-410 -730h-199l322 574h-310z" />
    <glyph glyph-name="eight" unicode="8" horiz-adv-x="609" 
d="M480 360q44 -24 68 -61t24 -83q0 -103 -80.5 -165.5t-204.5 -62.5q-112 0 -188.5 56t-76.5 147q0 68 40.5 120t105.5 70q-34 21 -52.5 55.5t-18.5 77.5q0 98 76 163t189 65q104 0 172 -54.5t68 -140.5q0 -63 -33 -113.5t-89 -73.5zM429 533q0 30 -20.5 49t-52.5 19
q-39 0 -64 -24t-25 -62q0 -30 20.5 -49t52.5 -19q39 0 64 24t25 62zM390 224q0 33 -23 53t-61 21q-43 0 -71 -24.5t-28 -64.5q0 -33 23 -53t61 -21q43 0 71 24.5t28 64.5z" />
    <glyph glyph-name="nine" unicode="9" horiz-adv-x="602" 
d="M64 452q0 123 85.5 206.5t209.5 83.5q111 0 183 -69t72 -170q0 -65 -26.5 -126t-90.5 -140l-192 -237h-210l190 226q-95 6 -158 70.5t-63 155.5zM349 580q-48 0 -81 -33.5t-33 -82.5q0 -41 27 -68.5t67 -27.5q48 0 81 33.5t33 82.5q0 41 -27 68.5t-67 27.5z" />
    <glyph glyph-name="A" unicode="A" horiz-adv-x="788" 
d="M-43 0l534 762l248 -762h-191l-32 102h-288l-71 -102h-200zM470 245l-45 142l-98 -142h143z" />
    <glyph glyph-name="B" unicode="B" horiz-adv-x="643" 
d="M310 0h-290l129 730h253q107 0 165.5 -45t58.5 -126q0 -57 -32 -105t-82 -71q49 -20 76 -57.5t27 -88.5q0 -102 -84.5 -169.5t-220.5 -67.5zM306 574l-24 -139h60q44 0 70 21.5t26 56.5q0 30 -18.5 45.5t-53.5 15.5h-60zM257 297l-24 -141h92q44 0 70.5 21.5t26.5 56.5
q0 30 -19 46.5t-54 16.5h-92z" />
    <glyph glyph-name="C" unicode="C" horiz-adv-x="627" 
d="M239 338q0 -76 48 -123t124 -47q52 0 95.5 15.5t75.5 45.5l-37 -211q-31 -15 -70 -22.5t-91 -7.5q-146 0 -241 95t-95 241q0 88 33 165.5t95 135.5q60 57 139.5 87t167.5 30q53 0 100.5 -10.5t81.5 -29.5l-37 -207q-23 30 -66.5 48.5t-94.5 18.5q-98 0 -163 -62.5
t-65 -161.5z" />
    <glyph glyph-name="D" unicode="D" horiz-adv-x="732" 
d="M20 0l129 730h249q142 0 232.5 -90t90.5 -233q0 -176 -128 -291.5t-319 -115.5h-254zM529 397q0 78 -47 127.5t-124 49.5h-47l-73 -418h46q107 0 176 68t69 173z" />
    <glyph glyph-name="E" unicode="E" horiz-adv-x="580" 
d="M495 0h-475l129 730h474l-28 -156h-288l-21 -123h267l-28 -156h-267l-24 -139h289z" />
    <glyph glyph-name="F" unicode="F" horiz-adv-x="559" 
d="M206 0h-186l129 730h466l-28 -156h-280l-23 -132h258l-28 -156h-258z" />
    <glyph glyph-name="G" unicode="G" horiz-adv-x="766" 
d="M452 425h295l-55 -313q-61 -64 -134.5 -94t-166.5 -30q-146 0 -244.5 97.5t-98.5 241.5q0 87 34 165t97 136q61 55 141 84.5t171 29.5q77 0 144.5 -22t110.5 -59l-37 -208q-41 51 -103 82t-126 31q-110 0 -176 -63t-66 -167q0 -77 48.5 -126.5t122.5 -49.5q35 0 60.5 6
t48.5 20l14 83h-152z" />
    <glyph glyph-name="H" unicode="H" horiz-adv-x="774" 
d="M662 0h-190l52 295h-262l-52 -295h-190l129 730h190l-49 -279h262l49 279h190z" />
    <glyph glyph-name="I" unicode="I" horiz-adv-x="322" 
d="M20 0l129 730h190l-129 -730h-190z" />
    <glyph glyph-name="J" unicode="J" horiz-adv-x="490" 
d="M517 730l-83 -471q-22 -126 -102.5 -198.5t-197.5 -72.5q-40 0 -80.5 10.5t-63.5 26.5l31 176q23 -22 51.5 -34t58.5 -12q48 0 76 26.5t38 82.5l82 466h190z" />
    <glyph glyph-name="K" unicode="K" horiz-adv-x="710" 
d="M784 730l-318 -342l208 -388h-210l-190 361l-64 -361h-190l129 730h190l-55 -313l278 313h222z" />
    <glyph glyph-name="L" unicode="L" horiz-adv-x="551" 
d="M485 0h-465l129 730h190l-101 -574h275z" />
    <glyph glyph-name="M" unicode="M" horiz-adv-x="1025" 
d="M328 762l192 -460l350 460l101 -762h-191l-42 339l-270 -359l-147 359l-163 -339h-196z" />
    <glyph glyph-name="N" unicode="N" horiz-adv-x="808" 
d="M154 761l417 -419l69 388h185l-134 -761l-418 418l-68 -387h-185z" />
    <glyph glyph-name="O" unicode="O" horiz-adv-x="818" 
d="M170 620q59 59 135 90.5t161 31.5q147 0 244 -94.5t97 -241.5q0 -83 -32 -160t-90 -136q-59 -59 -135 -90.5t-161 -31.5q-147 0 -244 94.5t-97 241.5q0 83 32 160t90 136zM616 393q0 78 -46 125.5t-122 47.5q-91 0 -150 -66.5t-59 -162.5q0 -78 46 -125.5t122 -47.5
q91 0 150 66.5t59 162.5z" />
    <glyph glyph-name="P" unicode="P" horiz-adv-x="612" 
d="M639 518q0 -121 -92 -195t-242 -74h-51l-44 -249h-190l129 730h234q120 0 188 -57t68 -155zM363 576h-51l-31 -173h51q54 0 87 27.5t33 71.5q0 35 -23.5 54.5t-65.5 19.5z" />
    <glyph glyph-name="Q" unicode="Q" horiz-adv-x="818" 
d="M687 113l86 -113h-191l-19 25q-40 -18 -84 -27.5t-90 -9.5q-147 0 -244 94.5t-97 241.5q0 83 32 160t90 136q59 59 135 90.5t161 31.5q147 0 244 -94.5t97 -241.5q0 -82 -31 -158.5t-89 -134.5zM616 393q0 78 -46 125.5t-122 47.5q-91 0 -150 -66.5t-59 -162.5
q0 -78 46 -125.5t122 -47.5q11 0 23 1.5t23 3.5l-130 171h192l63 -82q18 29 28 63.5t10 71.5z" />
    <glyph glyph-name="R" unicode="R" horiz-adv-x="669" 
d="M296 254h-44l-45 -254h-187l129 730h235q122 0 190.5 -55.5t68.5 -154.5q0 -77 -42.5 -137t-119.5 -94l152 -289h-209zM362 576h-53l-31 -173h53q53 0 84.5 26.5t31.5 69.5q0 38 -21.5 57.5t-63.5 19.5z" />
    <glyph glyph-name="S" unicode="S" horiz-adv-x="564" 
d="M-3 63l33 184q62 -53 114 -76.5t104 -23.5q48 0 75.5 18t27.5 49q0 19 -11.5 33.5t-35.5 26.5l-100 48q-69 33 -100 73.5t-31 95.5q0 108 83 179.5t210 71.5q58 0 113 -20t86 -51l-32 -184q-40 45 -91 70t-102 25q-39 0 -62 -15.5t-23 -42.5q0 -15 9.5 -25.5t34.5 -22.5
l89 -42q80 -39 113.5 -80.5t33.5 -99.5q0 -115 -87 -190.5t-220 -75.5q-65 0 -129 21t-102 54z" />
    <glyph glyph-name="T" unicode="T" horiz-adv-x="664" 
d="M727 730l-28 -156h-217l-101 -574h-190l101 574h-217l28 156h624z" />
    <glyph glyph-name="U" unicode="U" horiz-adv-x="726" 
d="M248 257q0 -48 27.5 -75t76.5 -27q53 0 87 35t47 103l77 437h190l-77 -436q-25 -142 -118.5 -224t-226.5 -82q-123 0 -198.5 67t-75.5 179q0 18 1 32.5t4 27.5l77 436h190l-77 -437q-3 -18 -3.5 -24.5t-0.5 -11.5z" />
    <glyph glyph-name="V" unicode="V" horiz-adv-x="782" 
d="M865 730l-534 -762l-248 762h194l120 -394l266 394h202z" />
    <glyph glyph-name="W" unicode="W" horiz-adv-x="1070" 
d="M682 -32l-125 416l-273 -416l-201 762h194l94 -368l250 388l112 -386l217 366h203z" />
    <glyph glyph-name="X" unicode="X" horiz-adv-x="772" 
d="M723 0h-210l-129 245l-213 -245h-214l342 386l-190 344h215l105 -207l179 207h214l-309 -348z" />
    <glyph glyph-name="Y" unicode="Y" horiz-adv-x="743" 
d="M476 311l-55 -311h-191l55 311l-199 419h210l111 -242l198 242h218z" />
    <glyph glyph-name="Z" unicode="Z" horiz-adv-x="680" 
d="M736 730l-431 -574h317l-28 -156h-623l432 574h-311l28 156h616z" />
    <glyph glyph-name="a" unicode="a" horiz-adv-x="568" 
d="M291 0l4 24q-19 -16 -50 -26t-64 -10q-74 0 -122 43t-48 112q0 83 64.5 136t162.5 53q33 0 63 -8t45 -21q0 1 1 6t1 8q0 27 -26.5 42t-74.5 15q-34 0 -72.5 -10t-76.5 -29l28 157q38 18 87 28t98 10q122 0 177.5 -59t35.5 -170l-53 -301h-180zM327 170q0 19 -18.5 31
t-47.5 12q-36 0 -60 -15t-24 -39q0 -19 18.5 -31t47.5 -12q36 0 60 15t24 39z" />
    <glyph glyph-name="b" unicode="b" 
d="M419 530q92 0 151.5 -65.5t59.5 -165.5q0 -129 -84 -220t-206 -91q-38 0 -75.5 13.5t-62.5 34.5l-6 -36h-186l134 760h186l-50 -281q23 23 60.5 37t78.5 14zM443 278q0 42 -24.5 68t-64.5 26q-50 0 -83 -38t-33 -94q0 -42 24.5 -68t64.5 -26q50 0 83 38t33 94z" />
    <glyph glyph-name="c" unicode="c" horiz-adv-x="442" 
d="M203 242q0 -42 27 -67.5t70 -25.5q22 0 40.5 4.5t49.5 19.5l-31 -172q-22 -7 -45.5 -10t-50.5 -3q-102 0 -170 64t-68 163q0 133 95 224t232 91q26 0 53 -4.5t45 -11.5l-30 -169q-25 15 -42.5 19.5t-40.5 4.5q-55 0 -94.5 -36.5t-39.5 -90.5z" />
    <glyph glyph-name="d" unicode="d" 
d="M23 219q0 129 84 220t206 91q41 0 75 -12t63 -36l49 278h186l-134 -760h-186l7 39q-23 -23 -60.5 -37t-78.5 -14q-92 0 -151.5 65.5t-59.5 165.5zM415 278q0 42 -24.5 68t-64.5 26q-50 0 -83 -38t-33 -94q0 -42 24.5 -68t64.5 -26q50 0 83 38t33 94z" />
    <glyph glyph-name="e" unicode="e" horiz-adv-x="566" 
d="M25 229q0 123 89 212t214 89q132 0 187 -89.5t16 -231.5h-335q10 -34 42 -52t84 -18q40 0 85 11t78 29l-27 -152q-39 -19 -84.5 -29t-96.5 -10q-110 0 -181 68t-71 173zM312 385q-32 0 -58.5 -17t-42.5 -47h171q2 27 -17 45.5t-53 18.5z" />
    <glyph glyph-name="f" unicode="f" horiz-adv-x="400" 
d="M391 772q27 0 48.5 -4t36.5 -11l-26 -152q-9 6 -21 9.5t-26 3.5q-29 0 -48 -16t-24 -45l-7 -39h100l-25 -146h-100l-66 -372h-183l66 372h-79l25 146h79l9 48q17 95 81.5 150.5t159.5 55.5z" />
    <glyph glyph-name="g" unicode="g" horiz-adv-x="649" 
d="M452 518h186l-81 -463q-23 -133 -114.5 -205t-232.5 -72q-54 0 -110 14t-84 34l31 173q31 -29 74.5 -44t97.5 -15q62 0 100.5 26.5t48.5 75.5l4 20q-23 -23 -55 -34t-73 -11q-89 0 -150 64t-61 159q0 121 79.5 205.5t194.5 84.5q39 0 75.5 -13t63.5 -35zM308 175
q42 0 72.5 27.5t34.5 70.5q4 42 -22 70t-68 28t-72.5 -27.5t-34.5 -70.5q-4 -42 22 -70t68 -28z" />
    <glyph glyph-name="h" unicode="h" horiz-adv-x="615" 
d="M326 363q-32 0 -53 -21t-27 -56l-50 -286h-186l134 760h186l-50 -281q30 25 65 38t73 13q87 0 130 -57t27 -150l-57 -323h-186l50 286q7 33 -8.5 54.5t-47.5 22.5z" />
    <glyph glyph-name="i" unicode="i" horiz-adv-x="298" 
d="M220 772h2q42 0 72 -29.5t30 -71.5t-30 -71.5t-72 -29.5h-2q-42 0 -72 29.5t-30 71.5t30 71.5t72 29.5zM10 0l91 518h186l-91 -518h-186z" />
    <glyph glyph-name="j" unicode="j" horiz-adv-x="298" 
d="M220 772h2q42 0 72 -29.5t30 -71.5t-30 -71.5t-72 -29.5h-2q-42 0 -72 29.5t-30 71.5t30 71.5t72 29.5zM-56 -67q27 0 43 14.5t21 43.5l93 527h186l-93 -528q-17 -98 -78.5 -152t-154.5 -54q-17 0 -39 2.5t-33 6.5l25 146q7 -3 14 -4.5t16 -1.5z" />
    <glyph glyph-name="k" unicode="k" horiz-adv-x="615" 
d="M10 0l134 760h185l-80 -455l179 213h219l-224 -250l139 -268h-206l-117 248l-44 -248h-185z" />
    <glyph glyph-name="l" unicode="l" horiz-adv-x="298" 
d="M10 0l134 760h186l-134 -760h-186z" />
    <glyph glyph-name="m" unicode="m" horiz-adv-x="895" 
d="M617 363q-26 0 -44 -17t-23 -46l-53 -300h-186l53 300q5 27 -8.5 45t-39.5 18t-44 -17t-23 -46l-53 -300h-186l91 518h186l-7 -39q25 23 63.5 37t76.5 14q40 0 71.5 -14t53.5 -43q40 30 77 43.5t77 13.5q83 0 128 -57.5t29 -145.5l-58 -327h-186l53 300q5 27 -8.5 45
t-39.5 18z" />
    <glyph glyph-name="n" unicode="n" horiz-adv-x="615" 
d="M326 363q-32 0 -53 -21t-27 -56l-50 -286h-186l91 518h186l-7 -39q30 25 65 38t73 13q87 0 130 -57t27 -150l-57 -323h-186l50 286q7 33 -8.5 54.5t-47.5 22.5z" />
    <glyph glyph-name="o" unicode="o" horiz-adv-x="613" 
d="M588 289q0 -123 -90 -212t-219 -89q-110 0 -182 68t-72 173q0 123 90 212t219 89q110 0 182 -68t72 -173zM406 280q0 42 -23 67t-62 25q-49 0 -81.5 -38.5t-32.5 -95.5q0 -42 23 -67t62 -25q49 0 81.5 38.5t32.5 95.5z" />
    <glyph glyph-name="p" unicode="p" 
d="M419 530q92 0 151.5 -65.5t59.5 -165.5q0 -129 -84 -220t-206 -91q-38 0 -75.5 13.5t-62.5 34.5l-43 -246h-186l128 728h186l-7 -39q23 23 60.5 37t78.5 14zM443 278q0 42 -24.5 68t-64.5 26q-50 0 -83 -38t-33 -94q0 -42 24.5 -68t64.5 -26q50 0 83 38t33 94z" />
    <glyph glyph-name="q" unicode="q" 
d="M23 219q0 129 84 220t206 91q41 0 75 -12t63 -36l6 36h186l-128 -728h-186l44 249q-23 -23 -60.5 -37t-78.5 -14q-92 0 -151.5 65.5t-59.5 165.5zM415 278q0 42 -24.5 68t-64.5 26q-50 0 -83 -38t-33 -94q0 -42 24.5 -68t64.5 -26q50 0 83 38t33 94z" />
    <glyph glyph-name="r" unicode="r" horiz-adv-x="419" 
d="M441 528l-34 -191q-72 12 -115.5 -14.5t-54.5 -89.5l-41 -233h-186l91 518h186l-11 -62q28 37 71.5 56t93.5 16z" />
    <glyph glyph-name="s" unicode="s" horiz-adv-x="454" 
d="M0 39l28 160q29 -32 75 -51.5t92 -19.5q22 0 35.5 7.5t13.5 20.5q0 9 -5 14.5t-20 10.5l-62 23q-55 20 -81.5 52.5t-26.5 79.5q0 83 64.5 138.5t165.5 55.5q42 0 86 -12t69 -30l-27 -156q-32 25 -72 40.5t-73 15.5q-19 0 -29.5 -7t-10.5 -19q0 -10 6.5 -16.5t27.5 -14.5
l69 -27q47 -18 70.5 -48.5t23.5 -71.5q0 -86 -68 -141t-171 -55q-48 0 -97.5 14t-82.5 37z" />
    <glyph glyph-name="t" unicode="t" horiz-adv-x="431" 
d="M295 372l-31 -172q-4 -26 8.5 -39.5t38.5 -13.5q18 0 36 6t34 18l-29 -163q-22 -10 -50.5 -15t-57.5 -5q-93 0 -139 51t-30 141l34 192h-79l25 146h79l18 99l195 54l-27 -153h120l-25 -146h-120z" />
    <glyph glyph-name="u" unicode="u" horiz-adv-x="612" 
d="M284 147q31 0 52 20.5t28 56.5l52 294h186l-91 -518h-186l7 39q-28 -24 -62.5 -37.5t-68.5 -13.5q-91 0 -134 58t-25 160l55 312h186l-52 -294q-6 -34 8 -55.5t45 -21.5z" />
    <glyph glyph-name="v" unicode="v" horiz-adv-x="602" 
d="M236 518l72 -218l148 218h201l-407 -548l-215 548h201z" />
    <glyph glyph-name="w" unicode="w" horiz-adv-x="860" 
d="M303 284l174 256l85 -256l157 234h196l-391 -549l-97 275l-193 -275l-199 549h190z" />
    <glyph glyph-name="x" unicode="x" horiz-adv-x="595" 
d="M546 0h-199l-69 141l-116 -141h-205l235 266l-132 252h199l61 -126l102 126h203l-219 -253z" />
    <glyph glyph-name="y" unicode="y" horiz-adv-x="628" 
d="M152 -210h-196l233 321l-142 407h196l72 -229l155 229h201z" />
    <glyph glyph-name="z" unicode="z" horiz-adv-x="527" 
d="M556 518l-282 -372h200l-26 -146h-480l283 372h-203l25 146h483z" />
    <glyph glyph-name="NULL" horiz-adv-x="606" 
 />
    <glyph glyph-name="uni00A0" horiz-adv-x="200" 
 />
    </font>
</defs>
</svg>
